<svg width="64" height="64" viewBox="0 0 64 64" fill="none" xmlns="http://www.w3.org/2000/svg">
  <defs>
    <linearGradient id="fav-bg" x1="0%" y1="0%" x2="100%" y2="100%">
      <stop offset="0%" stopColor="#0B253A" />
      <stop offset="100%" stopColor="#040F18" />
    </linearGradient>
    <linearGradient id="fav-split" x1="0%" y1="0%" x2="100%" y2="100%">
      <stop offset="0%" stopColor="#2563EB" />
      <stop offset="100%" stopColor="#0284C7" />
    </linearGradient>
  </defs>
  <rect width="64" height="64" rx="16" fill="url(#fav-bg)" stroke="#38BDF8" stroke-width="2" />
  <!-- Split AC Unit -->
  <rect x="10" y="14" width="44" height="17" rx="3.5" fill="url(#fav-split)" stroke="#7DD3FC" stroke-width="2" />
  <line x1="14" y1="19" x2="50" y2="19" stroke="#BAE6FD" stroke-width="1.2" stroke-opacity="0.8" />
  <path d="M14 27H50" stroke="#FFFFFF" stroke-width="2" stroke-linecap="round" />
  <circle cx="47" cy="23" r="1.5" fill="#38BDF8" />
  <!-- Cool Air Breeze Waves -->
  <path d="M18 36C22 41 28 41 34 37C39 34 44 39 47 42" stroke="#38BDF8" stroke-width="3" stroke-linecap="round" />
  <path d="M15 43C19 48 26 48 32 44C38 41 43 46 48 50" stroke="#7DD3FC" stroke-width="2.5" stroke-linecap="round" stroke-opacity="0.85" />
  <!-- Snowflake crystal -->
  <path d="M22 55L22 49M19 52H25" stroke="#E0F2FE" stroke-width="2" stroke-linecap="round" />
</svg>
